<?xml version="1.0" encoding="UTF-8"?>
<svg width="25px" height="25px" viewBox="0 0 25 25" version="1.1" xmlns="http://www.w3.org/2000/svg" xmlns:xlink="http://www.w3.org/1999/xlink">
    <title>gear</title>
    <g id="Pages" stroke="none" stroke-width="1" fill="none" fill-rule="evenodd">
        <g id="Example-Web-App" transform="translate(-1660.000000, -223.000000)" fill="#FFFFFF" fill-rule="nonzero">
            <g id="Toggle" transform="translate(1650.000000, 213.000000)">
                <g id="Group-5" transform="translate(10.000000, 10.000000)">
                    <path d="M19.5133782,14.1386667 L18.4524523,13.2666667 C18.4844983,13.0153333 18.5069986,12.7606667 18.5069986,12.5006667 C18.5069986,12.2406667 18.4844983,11.986 18.4524523,11.7346667 L19.5133782,10.8626667 C20.0172498,10.4486667 20.1474791,9.73066667 19.8208831,9.16666667 L19.0510982,7.83533333 C18.7245021,7.27066667 18.0379003,7.02466667 17.4269815,7.25333333 L16.1362793,7.73666667 C15.730591,7.42733333 15.288084,7.164 14.8114856,6.96466667 L14.586482,5.61533333 C14.478753,4.97133333 13.9216988,4.5 13.2691884,4.5 L11.7303004,4.5 C11.0777901,4.5 10.5214177,4.97133333 10.4136887,5.614 L10.1886851,6.96333333 C9.71140483,7.16266667 9.26889782,7.426 8.86389141,7.73533333 L7.57250733,7.25266667 C6.96158856,7.024 6.27430495,7.27 5.9483907,7.83466667 L5.17860579,9.166 C4.85269154,9.73 4.98292087,10.4473333 5.48679248,10.8613333 L6.54771837,11.7333333 C6.51499058,11.9853333 6.49317205,12.24 6.49317205,12.5 C6.49317205,12.76 6.51567241,13.0146667 6.54771837,13.266 L5.48679248,14.138 C4.98292087,14.552 4.85269154,15.27 5.17928762,15.834 L5.94907253,17.1653333 C6.27566861,17.73 6.96227039,17.976 7.57318915,17.7473333 L8.86389141,17.264 C9.26957965,17.5733333 9.71208665,17.8366667 10.1886851,18.036 L10.4136887,19.3853333 C10.5214177,20.0286667 11.0784719,20.5 11.7309823,20.5 L13.2698703,20.5 C13.9223806,20.5 14.4794349,20.0286667 14.586482,19.386 L14.8114856,18.0366667 C15.2887659,17.8373333 15.7312729,17.574 16.1362793,17.2646667 L17.4269815,17.748 C18.0379003,17.9766667 18.7251839,17.7306667 19.05178,17.166 L19.8208831,15.8346667 C20.1474791,15.27 20.0172498,14.5526667 19.5133782,14.1386667 Z M12.5000853,15 C11.1194603,15 10.0000853,13.880625 10.0000853,12.5 C10.0000853,11.119375 11.1194603,10 12.5000853,10 C13.8807103,10 15.0000853,11.119375 15.0000853,12.5 C15.0000853,13.880625 13.8807103,15 12.5000853,15 L12.5000853,15 Z" id="Shape"></path>
                </g>
            </g>
        </g>
    </g>
</svg>