<?xml version="1.0" encoding="UTF-8"?>
<svg width="24px" height="24px" viewBox="0 0 24 24" version="1.1" xmlns="http://www.w3.org/2000/svg" xmlns:xlink="http://www.w3.org/1999/xlink">
    <title>check</title>
    <g id="Pages" stroke="none" stroke-width="1" fill="none" fill-rule="evenodd">
        <g id="Example-Web-App-Sources" transform="translate(-1649.000000, -293.000000)">
            <g id="Group" transform="translate(1423.000000, 268.000000)">
                <g id="Group-10" transform="translate(24.000000, 25.000000)">
                    <g id="Icon-/-General-/-Check" transform="translate(202.000000, 0.000000)">
                        <path d="M11.999485,2 C17.5229414,2 22,6.47785788 22,12 C22,17.523172 17.5229414,22 11.999485,22 C6.47705855,22 2,17.523172 2,12 C2,6.47785788 6.47705855,2 11.999485,2 Z M15.6918031,9.28535193 C15.300515,8.90488269 14.666168,8.90488269 14.2739592,9.28535193 L14.2739592,9.28535193 L10.9346606,12.5323212 L9.72673131,11.3568951 C9.33544322,10.9755306 8.7001755,10.9755306 8.30888742,11.3559999 L8.30888742,11.3559999 L8.29415657,11.3703234 C7.90194781,11.7507926 7.90194781,12.3684957 8.29415657,12.7498601 L8.29415657,12.7498601 L10.3776505,14.775747 C10.6851569,15.074751 11.1841643,15.074751 11.4916707,14.775747 L11.4916707,14.775747 L15.7065339,10.6774218 C16.097822,10.2969525 16.097822,9.68014473 15.7065339,9.29967548 L15.7065339,9.29967548 Z" id="sources-checkmark" fill="#FFFFFF"></path>
                        <g id="Icon-/-Small-/-Check" transform="translate(12.000000, 9.000000)"></g>
                    </g>
                </g>
            </g>
        </g>
    </g>
</svg>