<?xml version="1.0" encoding="UTF-8"?>
<svg width="25px" height="25px" viewBox="0 0 25 25" version="1.1" xmlns="http://www.w3.org/2000/svg" xmlns:xlink="http://www.w3.org/1999/xlink">
    <title>gallery</title>
    <g id="Pages" stroke="none" stroke-width="1" fill="none" fill-rule="evenodd">
        <g id="Example-Web-App" transform="translate(-315.000000, -223.000000)">
            <g id="Toggle" transform="translate(305.000000, 213.000000)">
                <g id="Group-6" transform="translate(10.000000, 10.000000)">
                    <g id="Group-4" transform="translate(5.500000, 5.500000)">
                        <path d="M5.1277704,1.95404733e-17 L8.8722296,4.33876596e-16 C10.6552671,-2.52094797e-16 11.3018396,0.185651222 11.9536914,0.534265408 C12.6055433,0.882879593 13.1171204,1.39445674 13.4657346,2.04630859 C13.8143488,2.69816044 14,3.34473292 14,5.1277704 L14,8.8722296 C14,10.6552671 13.8143488,11.3018396 13.4657346,11.9536914 C13.1171204,12.6055433 12.6055433,13.1171204 11.9536914,13.4657346 C11.3018396,13.8143488 10.6552671,14 8.8722296,14 L5.1277704,14 C3.34473292,14 2.69816044,13.8143488 2.04630859,13.4657346 C1.39445674,13.1171204 0.882879593,12.6055433 0.534265408,11.9536914 C0.185651222,11.3018396 -5.14771143e-17,10.6552671 8.85964938e-17,8.8722296 L3.64820576e-16,5.1277704 C-2.11971261e-16,3.34473292 0.185651222,2.69816044 0.534265408,2.04630859 C0.882879593,1.39445674 1.39445674,0.882879593 2.04630859,0.534265408 C2.69816044,0.185651222 3.34473292,-1.13535777e-17 5.1277704,1.95404733e-17 Z" id="Rectangle" stroke="#FFFFFF" stroke-linecap="round" stroke-linejoin="round" fill-rule="nonzero"></path>
                        <path d="M6.24155915,0 L6.28205146,0 L7.71794886,0 L7.75844117,0 C9.07788729,0 10.1229334,0 10.9408206,0.10993981 C11.7825436,0.223110064 12.463877,0.461555186 13.0011898,0.998839277 C13.5384308,1.53613055 13.7768615,2.21742079 13.8900821,3.05916538 C14,3.87705254 14,4.92211303 14,6.24148736 L14,6.24155915 L14,6.28205146 L14,7.71794886 L14,7.75844117 L14,7.75851297 C14,9.07788729 14,10.1229334 13.8900821,10.9408206 C13.7768615,11.7825436 13.5384308,12.463877 13.0011898,13.0011898 C12.463877,13.5384308 11.7825436,13.7768615 10.9408206,13.8900821 C10.1229334,14 9.07788729,14 7.75851297,14 L7.75844117,14 L7.71794886,14 L6.28205146,14 L6.24155915,14 L6.24148736,14 C4.92211303,14 3.87705254,14 3.05916538,13.8900821 C2.21742079,13.7768615 1.53613055,13.5384308 0.998839277,13.0011898 C0.461555186,12.463877 0.223110064,11.7825436 0.10993981,10.9408206 C0,10.1229334 0,9.07788729 0,7.75844117 L0,7.71794886 L0,6.28205146 L0,6.24155915 C0,4.92212739 0,3.87705972 0.10993981,3.05916538 C0.223110064,2.21742079 0.461555186,1.53613055 0.998839277,0.998839277 C1.53613055,0.461555186 2.21742079,0.223110064 3.05916538,0.10993981 C3.87705972,0 4.92212739,0 6.24155915,0 Z M3.20266179,1.17726389 C2.48034078,1.27437363 2.06418182,1.45649568 1.76033875,1.76033875 C1.45649568,2.06418182 1.27437363,2.48034078 1.17726389,3.20266179 C1.07806492,3.94046895 1.07692338,4.91305252 1.07692338,6.28205146 L1.07692338,7.71794886 C1.07692338,8.48055397 1.07727517,9.12017447 1.09473568,9.66466677 C1.1043203,9.96340522 1.4550885,10.1026155 1.67473772,9.89986676 L3.17764128,8.51257449 C4.1366269,7.62734374 4.6161233,7.18472836 5.19402892,7.19628734 C5.77194891,7.20784631 6.23337454,7.66927194 7.15615401,8.59205141 L7.1562258,8.5921232 L8.1820309,9.61792831 C8.32224629,9.75814369 8.54976423,9.7579283 8.68997961,9.61771292 L8.68997961,9.61771292 L8.68997961,9.61771292 C9.59050267,8.71718987 10.0407283,8.26696424 10.6074052,8.24808218 C11.1740103,8.22920013 11.6532411,8.64855397 12.6117026,9.48718985 L12.6117026,9.48718985 C12.7282257,9.58913856 12.9100821,9.51009241 12.9132411,9.35530267 C12.9228616,8.88138473 12.9230769,8.34069757 12.9230769,7.71794886 L12.9230769,6.28205146 C12.9230769,4.91305252 12.9219282,3.94046895 12.8227077,3.20266179 C12.7256411,2.48034078 12.5434975,2.06418182 12.2396616,1.76033875 C11.9358257,1.45649568 11.5196308,1.27437363 10.7973744,1.17726389 C10.0595386,1.07806492 9.08693345,1.07692338 7.71794886,1.07692338 L6.28205146,1.07692338 C4.91305252,1.07692338 3.94046895,1.07806492 3.20266179,1.17726389 Z M10.5897437,4.84615406 C10.5897437,5.63920019 9.9468924,6.28205146 9.15384627,6.28205146 C8.36080013,6.28205146 7.71794886,5.63920019 7.71794886,4.84615406 C7.71794886,4.05312946 8.36080013,3.41025666 9.15384627,3.41025666 C9.9468924,3.41025666 10.5897437,4.05312946 10.5897437,4.84615406 Z" id="Shape" fill="#FFFFFF"></path>
                    </g>
                </g>
            </g>
        </g>
    </g>
</svg>